<svg width="118" height="20" viewBox="0 0 118 20" fill="none" xmlns="http://www.w3.org/2000/svg">
<path fill-rule="evenodd" clip-rule="evenodd" d="M58.9427 0L61.4097 7.6652H69.5154L62.9956 12.3348L65.4626 20L58.9427 15.2423L52.511 20L54.978 12.3348L48.4581 7.6652H56.4758L58.9427 0Z" fill="#F5BF00"/>
<path fill-rule="evenodd" clip-rule="evenodd" d="M107.401 0L109.868 7.6652H117.974L111.454 12.3348L113.921 20L107.401 15.2423L100.969 20L103.436 12.3348L96.9163 7.6652H104.934L107.401 0Z" fill="#F5BF00"/>
<path fill-rule="evenodd" clip-rule="evenodd" d="M10.4846 0L12.9515 7.6652H21.0573L14.5374 12.3348L17.0044 20L10.4846 15.2423L4.05286 20L6.51982 12.3348L0 7.6652H8.01762L10.4846 0Z" fill="#F5BF00"/>
<path fill-rule="evenodd" clip-rule="evenodd" d="M83.1718 0L85.6388 7.6652H93.7445L87.2247 12.3348L89.6916 20L83.1718 15.2423L76.7401 20L79.207 12.3348L72.6872 7.6652H80.7048L83.1718 0Z" fill="#F5BF00"/>
<path fill-rule="evenodd" clip-rule="evenodd" d="M34.7137 0L37.1806 7.6652H45.2863L38.7665 12.3348L41.2335 20L34.7137 15.2423L28.2819 20L30.7489 12.3348L24.2291 7.6652H32.2467L34.7137 0Z" fill="#F5BF00"/>
</svg>
