<svg width="78" height="65" viewBox="0 0 78 65" fill="none" xmlns="http://www.w3.org/2000/svg">
<path d="M63.375 0H14.625C6.552 0.00975 0.00975 6.552 0 14.625V50.375C0.00975 58.448 6.552 64.9902 14.625 65H63.375C71.448 64.9902 77.9902 58.448 78 50.375V14.625C77.9902 6.552 71.448 0.00975 63.375 0ZM51.7887 36.8615L33.0557 46.228C30.6475 47.4338 27.7192 46.4555 26.5135 44.0473C26.1755 43.3713 26 42.6238 26 41.8665V23.1335C26 20.4425 28.1807 18.2585 30.875 18.2585C31.6322 18.2585 32.3797 18.434 33.0557 18.772L51.7887 28.1385C54.2555 29.2208 55.4222 31.993 54.34 34.4597C53.8492 35.5777 52.9522 36.4715 51.7887 36.8615Z" fill="white"/>
</svg>
