<svg width="1053" height="202" viewBox="0 0 1053 202" fill="none" xmlns="http://www.w3.org/2000/svg">
<path d="M253.621 189.825H257.058C258.097 189.825 258.967 189.655 259.656 189.325C260.346 188.985 260.895 188.566 261.295 188.056C261.694 187.547 261.974 187.007 262.134 186.438C262.294 185.868 262.384 185.339 262.384 184.859C262.384 184.279 262.264 183.7 262.034 183.13C261.814 182.561 261.485 182.051 261.045 181.612C260.615 181.162 260.066 180.802 259.396 180.533C258.727 180.263 257.958 180.133 257.098 180.133H253.621V189.825V189.825ZM251.423 201.205V178.055H257.028C257.998 178.055 258.947 178.185 259.846 178.464C260.755 178.734 261.565 179.144 262.264 179.713C262.963 180.273 263.533 180.972 263.953 181.812C264.372 182.661 264.582 183.66 264.582 184.829C264.582 185.718 264.442 186.587 264.162 187.447C263.883 188.296 263.443 189.055 262.853 189.715C262.254 190.374 261.485 190.904 260.525 191.313C259.586 191.723 258.437 191.933 257.098 191.933H253.621V201.205H251.423V201.205ZM291.06 201.205V178.055H293.268V199.097H305.587V201.205H291.06V201.205ZM346.093 201.205C345.663 200.216 345.154 198.987 344.574 197.538C343.985 196.099 343.385 194.561 342.756 192.942H333.873C333.254 194.561 332.644 196.099 332.055 197.538C331.475 198.987 330.966 200.216 330.536 201.205H328.328C328.648 200.426 329.087 199.397 329.627 198.108C330.166 196.819 330.756 195.41 331.375 193.881C332.005 192.343 332.654 190.754 333.324 189.095C333.993 187.447 334.643 185.848 335.272 184.309C335.892 182.781 336.471 181.372 337.001 180.103C337.53 178.824 337.97 177.785 338.319 176.986C338.639 177.785 339.069 178.824 339.608 180.103C340.158 181.372 340.737 182.781 341.367 184.309C341.986 185.848 342.646 187.447 343.325 189.095C344.005 190.754 344.654 192.343 345.284 193.881C345.913 195.41 346.493 196.819 347.022 198.108C347.552 199.397 347.991 200.426 348.331 201.205H346.093V201.205ZM337.99 182.661C337.56 183.67 337.041 184.919 336.451 186.388C335.862 187.856 335.242 189.405 334.623 191.024H342.016C341.367 189.405 340.747 187.856 340.158 186.388C339.578 184.919 339.069 183.67 338.639 182.661C338.599 182.571 338.539 182.421 338.479 182.221C338.409 182.021 338.359 181.831 338.319 181.652C338.27 181.831 338.22 182.021 338.15 182.221C338.09 182.421 338.04 182.571 337.99 182.661V182.661ZM386.059 179.254L385.25 181.042C384.49 180.732 383.651 180.483 382.742 180.263C381.813 180.043 380.923 179.933 380.064 179.933C379.285 179.933 378.585 180.033 377.966 180.233C377.356 180.423 376.827 180.692 376.397 181.042C375.958 181.382 375.638 181.782 375.408 182.221C375.178 182.661 375.068 183.15 375.068 183.66C375.068 184.289 375.238 184.829 375.588 185.269C375.928 185.718 376.387 186.098 376.947 186.418C377.506 186.747 378.146 187.037 378.865 187.317C379.575 187.577 380.304 187.856 381.053 188.146C381.793 188.416 382.522 188.736 383.231 189.095C383.951 189.455 384.59 189.885 385.15 190.404C385.709 190.934 386.169 191.543 386.509 192.253C386.858 192.972 387.038 193.831 387.038 194.85C387.038 195.87 386.848 196.779 386.479 197.588C386.109 198.407 385.579 199.097 384.89 199.666C384.201 200.236 383.351 200.686 382.342 200.995C381.343 201.305 380.204 201.465 378.925 201.465C378.016 201.465 377.177 201.385 376.407 201.225C375.648 201.055 374.958 200.865 374.369 200.636C373.779 200.406 373.26 200.176 372.81 199.946C372.371 199.706 372.021 199.497 371.761 199.327L372.77 197.378C373.16 197.618 373.59 197.858 374.079 198.098C374.569 198.328 375.078 198.537 375.598 198.707C376.137 198.887 376.677 199.027 377.236 199.127C377.806 199.237 378.356 199.287 378.895 199.287C379.475 199.287 380.124 199.217 380.823 199.047C381.523 198.887 382.172 198.617 382.772 198.258C383.361 197.888 383.861 197.418 384.261 196.849C384.66 196.269 384.86 195.57 384.86 194.751C384.86 193.741 384.56 192.922 383.971 192.293C383.371 191.663 382.632 191.124 381.743 190.684C380.863 190.244 379.894 189.845 378.865 189.505C377.826 189.155 376.857 188.756 375.978 188.286C375.088 187.826 374.349 187.247 373.759 186.547C373.16 185.858 372.86 184.959 372.86 183.86C372.86 183.08 373.02 182.331 373.33 181.612C373.65 180.882 374.109 180.253 374.709 179.713C375.318 179.174 376.048 178.734 376.917 178.414C377.776 178.085 378.755 177.925 379.834 177.925C380.434 177.925 381.053 177.975 381.693 178.075C382.332 178.175 382.932 178.284 383.491 178.424C384.061 178.564 384.57 178.714 385.02 178.864C385.48 179.014 385.819 179.144 386.059 179.254V179.254ZM426.215 178.055V180.163H420.05V201.205H417.822V180.163H411.717V178.055H426.215V178.055ZM452.782 178.055H455.021V201.205H452.782V178.055V178.055ZM500.172 199.646C499.483 200.086 498.564 200.496 497.425 200.885C496.276 201.275 494.947 201.465 493.428 201.465C491.64 201.465 490.021 201.155 488.582 200.526C487.143 199.896 485.924 199.047 484.915 197.978C483.916 196.909 483.137 195.67 482.587 194.271C482.038 192.862 481.758 191.373 481.758 189.795C481.758 188.086 482.068 186.498 482.697 185.029C483.327 183.56 484.176 182.291 485.265 181.222C486.334 180.143 487.603 179.304 489.052 178.704C490.501 178.095 492.049 177.795 493.688 177.795C494.277 177.795 494.867 177.835 495.456 177.915C496.056 177.985 496.615 178.095 497.165 178.245C497.704 178.404 498.194 178.574 498.654 178.764C499.103 178.964 499.493 179.174 499.823 179.424C499.713 179.593 499.623 179.733 499.563 179.843C499.493 179.943 499.433 180.063 499.363 180.183C499.303 180.303 499.223 180.433 499.133 180.583C499.053 180.732 498.943 180.932 498.813 181.162C498.124 180.732 497.315 180.413 496.396 180.193C495.476 179.983 494.597 179.873 493.758 179.873C492.389 179.873 491.12 180.133 489.931 180.652C488.742 181.162 487.703 181.871 486.834 182.771C485.954 183.67 485.265 184.709 484.755 185.888C484.246 187.067 483.996 188.316 483.996 189.635C483.996 190.884 484.216 192.093 484.675 193.242C485.135 194.401 485.775 195.42 486.624 196.299C487.463 197.168 488.472 197.868 489.641 198.407C490.81 198.927 492.099 199.197 493.528 199.197C494.157 199.197 494.757 199.147 495.346 199.047C495.926 198.957 496.465 198.827 496.965 198.667C497.465 198.497 497.904 198.328 498.284 198.158C498.654 197.988 498.953 197.808 499.163 197.638L500.172 199.646V199.646ZM546.293 179.254L545.484 181.042C544.735 180.732 543.895 180.483 542.976 180.263C542.057 180.043 541.168 179.933 540.298 179.933C539.519 179.933 538.83 180.033 538.21 180.233C537.591 180.423 537.071 180.692 536.641 181.042C536.202 181.382 535.872 181.782 535.652 182.221C535.422 182.661 535.313 183.15 535.313 183.66C535.313 184.289 535.482 184.829 535.832 185.269C536.172 185.718 536.631 186.098 537.191 186.418C537.75 186.747 538.39 187.037 539.099 187.317C539.819 187.577 540.548 187.856 541.287 188.146C542.037 188.416 542.766 188.736 543.476 189.095C544.195 189.455 544.824 189.885 545.394 190.404C545.953 190.934 546.413 191.543 546.753 192.253C547.103 192.972 547.272 193.831 547.272 194.85C547.272 195.87 547.093 196.779 546.723 197.588C546.353 198.407 545.824 199.097 545.134 199.666C544.435 200.236 543.595 200.686 542.586 200.995C541.577 201.305 540.438 201.465 539.169 201.465C538.26 201.465 537.421 201.385 536.651 201.225C535.892 201.055 535.203 200.865 534.613 200.636C534.014 200.406 533.494 200.176 533.054 199.946C532.605 199.706 532.255 199.497 531.995 199.327L533.005 197.378C533.394 197.618 533.834 197.858 534.323 198.098C534.803 198.328 535.313 198.537 535.842 198.707C536.372 198.887 536.921 199.027 537.481 199.127C538.04 199.237 538.59 199.287 539.129 199.287C539.719 199.287 540.358 199.217 541.058 199.047C541.767 198.887 542.417 198.617 543.006 198.258C543.606 197.888 544.105 197.418 544.495 196.849C544.904 196.269 545.104 195.57 545.104 194.751C545.104 193.741 544.804 192.922 544.205 192.293C543.615 191.663 542.876 191.124 541.987 190.684C541.098 190.244 540.138 189.845 539.099 189.505C538.06 189.155 537.101 188.756 536.212 188.286C535.332 187.826 534.593 187.247 533.994 186.547C533.404 185.858 533.104 184.959 533.104 183.86C533.104 183.08 533.264 182.331 533.574 181.612C533.884 180.882 534.343 180.253 534.953 179.713C535.552 179.174 536.292 178.734 537.151 178.414C538.02 178.085 538.989 177.925 540.079 177.925C540.678 177.925 541.297 177.975 541.937 178.075C542.576 178.175 543.176 178.284 543.735 178.424C544.305 178.564 544.805 178.714 545.264 178.864C545.714 179.014 546.063 179.144 546.293 179.254V179.254ZM581.783 201.465C580.614 201.465 579.535 201.275 578.526 200.895C577.527 200.526 576.658 199.986 575.918 199.287C575.179 198.607 574.609 197.748 574.19 196.749C573.76 195.74 573.55 194.601 573.55 193.322V178.055H575.758V193.232C575.758 194.161 575.908 195 576.208 195.76C576.508 196.519 576.937 197.159 577.477 197.688C578.016 198.218 578.656 198.627 579.385 198.917C580.125 199.217 580.924 199.357 581.783 199.357C582.632 199.357 583.422 199.217 584.151 198.917C584.891 198.627 585.52 198.218 586.07 197.688C586.609 197.159 587.029 196.519 587.348 195.76C587.658 195 587.818 194.161 587.818 193.232V178.055H590.026V193.322C590.026 194.601 589.816 195.74 589.387 196.749C588.967 197.748 588.388 198.607 587.638 199.287C586.889 199.986 586.02 200.526 585.01 200.895C584.011 201.275 582.932 201.465 581.783 201.465ZM618.182 201.205V178.055H623.798C624.767 178.055 625.706 178.185 626.615 178.464C627.524 178.734 628.324 179.144 629.033 179.713C629.733 180.273 630.292 180.972 630.712 181.812C631.141 182.661 631.351 183.66 631.351 184.829C631.351 186.128 631.051 187.357 630.472 188.526C629.892 189.695 628.923 190.594 627.584 191.224C627.784 191.543 628.044 191.973 628.364 192.512C628.693 193.062 629.043 193.641 629.433 194.281C629.822 194.92 630.232 195.59 630.652 196.279C631.071 196.969 631.481 197.628 631.871 198.258C632.26 198.887 632.61 199.457 632.94 199.976C633.26 200.496 633.519 200.905 633.709 201.205H631.021C630.852 200.945 630.622 200.596 630.342 200.136C630.062 199.676 629.752 199.177 629.403 198.607C629.053 198.048 628.693 197.458 628.304 196.829C627.914 196.199 627.534 195.59 627.165 194.98C626.805 194.371 626.445 193.801 626.116 193.262C625.776 192.722 625.496 192.253 625.256 191.873C625.037 191.913 624.817 191.933 624.567 191.933C624.337 191.933 624.097 191.933 623.858 191.933H620.39V201.205H618.182V201.205ZM620.39 189.825H623.827C624.867 189.825 625.726 189.655 626.415 189.305C627.105 188.955 627.664 188.536 628.054 188.026C628.454 187.517 628.733 186.977 628.903 186.398C629.063 185.838 629.143 185.309 629.143 184.829C629.143 184.249 629.033 183.67 628.803 183.11C628.574 182.551 628.244 182.051 627.814 181.612C627.385 181.162 626.835 180.802 626.166 180.533C625.496 180.263 624.727 180.133 623.858 180.133H620.39V189.825V189.825ZM675.953 190.604V199.816C675.064 200.336 674.055 200.735 672.936 201.025C671.807 201.325 670.628 201.465 669.399 201.465C667.58 201.465 665.952 201.165 664.483 200.576C663.034 199.976 661.785 199.167 660.756 198.128C659.737 197.089 658.938 195.87 658.378 194.461C657.809 193.062 657.539 191.543 657.539 189.925C657.539 188.176 657.849 186.557 658.488 185.079C659.128 183.6 659.987 182.311 661.086 181.232C662.175 180.153 663.454 179.304 664.913 178.704C666.372 178.095 667.91 177.795 669.529 177.795C670.628 177.795 671.757 177.935 672.886 178.215C674.025 178.494 675.034 178.914 675.923 179.454L674.814 181.262C674.105 180.832 673.266 180.493 672.306 180.243C671.337 179.993 670.408 179.873 669.499 179.873C668.18 179.873 666.931 180.133 665.752 180.652C664.573 181.162 663.534 181.871 662.645 182.761C661.745 183.64 661.036 184.689 660.516 185.908C659.997 187.117 659.737 188.396 659.737 189.755C659.737 191.064 659.977 192.293 660.436 193.452C660.906 194.621 661.556 195.65 662.395 196.519C663.234 197.398 664.253 198.088 665.442 198.597C666.631 199.097 667.95 199.357 669.399 199.357C670.118 199.357 670.868 199.277 671.657 199.117C672.436 198.957 673.196 198.707 673.905 198.387V192.552H668.909V190.604H675.953V190.604ZM703.2 201.205V178.055H717.798V180.063H705.408V188.526H716.499V190.604H705.408V199.127H718.247V201.205H703.2V201.205ZM744.825 201.205V178.055H750.43C751.399 178.055 752.349 178.185 753.248 178.464C754.157 178.734 754.966 179.144 755.666 179.713C756.365 180.273 756.935 180.972 757.354 181.812C757.774 182.661 757.984 183.66 757.984 184.829C757.984 186.128 757.694 187.357 757.105 188.526C756.525 189.695 755.566 190.594 754.227 191.224C754.417 191.543 754.677 191.973 755.006 192.512C755.326 193.062 755.686 193.641 756.075 194.281C756.465 194.92 756.865 195.59 757.284 196.279C757.714 196.969 758.114 197.628 758.503 198.258C758.893 198.887 759.253 199.457 759.573 199.976C759.902 200.496 760.152 200.905 760.352 201.205H757.664C757.484 200.945 757.264 200.596 756.985 200.136C756.695 199.676 756.385 199.177 756.045 198.607C755.696 198.048 755.326 197.458 754.936 196.829C754.547 196.199 754.177 195.59 753.797 194.98C753.438 194.371 753.088 193.801 752.748 193.262C752.419 192.722 752.129 192.253 751.889 191.873C751.679 191.913 751.449 191.933 751.21 191.933C750.97 191.933 750.73 191.933 750.5 191.933H747.023V201.205H744.825V201.205ZM747.023 189.825H750.46C751.499 189.825 752.369 189.655 753.058 189.305C753.747 188.955 754.297 188.536 754.697 188.026C755.096 187.517 755.376 186.977 755.536 186.398C755.696 185.838 755.786 185.309 755.786 184.829C755.786 184.249 755.666 183.67 755.436 183.11C755.216 182.551 754.886 182.051 754.447 181.612C754.017 181.162 753.468 180.802 752.798 180.533C752.129 180.263 751.359 180.133 750.5 180.133H747.023V189.825V189.825ZM793.054 193.132V201.205H790.816V193.132C790.536 192.652 790.167 192.023 789.697 191.234C789.237 190.444 788.728 189.575 788.188 188.606C787.649 187.647 787.089 186.647 786.49 185.588C785.9 184.549 785.331 183.54 784.791 182.581C784.242 181.612 783.752 180.742 783.302 179.953C782.843 179.164 782.473 178.534 782.193 178.055H784.691C785.081 178.704 785.56 179.523 786.12 180.523C786.68 181.512 787.279 182.571 787.918 183.68C788.558 184.789 789.187 185.918 789.827 187.067C790.466 188.216 791.046 189.265 791.565 190.214L791.955 191.194L792.345 190.214C792.884 189.265 793.464 188.216 794.093 187.067C794.723 185.918 795.342 184.789 795.952 183.68C796.571 182.571 797.161 181.512 797.71 180.523C798.26 179.523 798.729 178.704 799.119 178.055H801.647L793.054 193.132V193.132Z" fill="white"/>
<path d="M1037.55 131.744C1028.77 120.613 1020.34 109.813 1012.26 99.3314C1004.18 88.8503 995.742 77.9895 986.97 66.759C984.862 68.8572 982.753 70.9055 980.645 72.9038C978.537 74.8921 976.369 76.8804 974.141 78.8688C974.141 88.001 974.171 96.8136 974.231 105.306C974.29 113.799 974.32 122.612 974.32 131.744H961.152V6.33023H974.32V59.0256C974.32 59.9648 974.261 60.904 974.141 61.8332C974.031 62.7724 973.911 63.7715 973.791 64.8207C974.38 64.0014 974.93 63.3019 975.469 62.7124C975.989 62.1229 976.549 61.4235 977.128 60.6042C986.5 51.8217 995.692 42.8093 1004.7 33.5572C1013.73 24.305 1022.92 15.2327 1032.28 6.33023H1047.74C1039.19 15.0029 1030.64 23.6855 1022.1 32.4181C1013.55 41.1407 1004.93 49.8334 996.272 58.496C1006.11 71.0254 1015.54 83.2351 1024.56 95.125C1033.57 107.005 1042.93 119.205 1052.65 131.744H1037.55V131.744ZM613.696 6.33023V17.7505H580.314V131.744H568.195V17.7505H535.183V6.33023H613.696V6.33023ZM711.413 133.143C705.099 133.143 699.214 132.124 693.768 130.075C688.323 128.027 683.607 125.13 679.62 121.373C675.644 117.626 672.516 113.03 670.228 107.594C667.95 102.149 666.801 95.9743 666.801 89.0601V6.33023H678.751V88.5306C678.751 93.5663 679.56 98.1324 681.209 102.229C682.848 106.325 685.126 109.813 688.053 112.69C690.981 115.548 694.438 117.776 698.424 119.354C702.401 120.943 706.737 121.732 711.413 121.732C715.989 121.732 720.256 120.943 724.242 119.354C728.219 117.776 731.676 115.548 734.604 112.69C737.531 109.813 739.839 106.325 741.538 102.229C743.236 98.1324 744.086 93.5663 744.086 88.5306V6.33023H756.025V89.0601C756.025 95.9743 754.886 102.149 752.608 107.594C750.32 113.03 747.163 117.626 743.116 121.373C739.08 125.13 734.334 128.027 728.898 130.075C723.453 132.124 717.618 133.143 711.413 133.143V133.143ZM909.795 123.311C906.048 125.649 901.063 127.877 894.858 129.985C888.653 132.094 881.449 133.143 873.256 133.143C863.534 133.143 854.782 131.444 846.998 128.057C839.205 124.65 832.591 120.054 827.145 114.269C821.7 108.464 817.493 101.759 814.506 94.1558C811.518 86.5423 810.02 78.4591 810.02 69.9163C810.02 60.6642 811.718 52.0515 815.125 44.0982C818.512 36.135 823.139 29.2508 828.994 23.4557C834.849 17.6606 841.703 13.1245 849.546 9.84724C857.39 6.57002 865.762 4.93141 874.665 4.93141C877.822 4.93141 881.01 5.13124 884.227 5.5409C887.454 5.95055 890.521 6.57002 893.449 7.38933C896.377 8.20863 899.074 9.13784 901.532 10.1969C903.99 11.256 906.098 12.4151 907.857 13.704C907.267 14.6432 906.808 15.4025 906.448 15.992C906.098 16.5815 905.749 17.191 905.399 17.8405C905.049 18.4799 904.64 19.2093 904.17 20.0286C903.7 20.8479 903.111 21.907 902.411 23.1959C898.665 20.8479 894.298 19.0994 889.333 17.9304C884.347 16.7514 879.581 16.1619 875.015 16.1619C867.631 16.1619 860.727 17.5707 854.282 20.3883C847.848 23.1959 842.252 27.0327 837.516 31.8886C832.77 36.7445 829.024 42.3697 826.266 48.7543C823.518 55.1289 822.149 61.8931 822.149 69.0371C822.149 75.8213 823.378 82.3558 825.836 88.6205C828.294 94.8852 831.801 100.391 836.367 105.136C840.934 109.872 846.379 113.679 852.704 116.547C859.028 119.414 866.052 120.853 873.786 120.853C877.183 120.853 880.45 120.583 883.617 120.054C886.785 119.534 889.702 118.835 892.4 117.956C895.098 117.076 897.466 116.167 899.514 115.228C901.562 114.299 903.171 113.36 904.34 112.42L909.795 123.311V123.311Z" fill="white"/>
<path d="M248.486 131.744V6.33023H278.87C284.145 6.33023 289.241 7.05961 294.157 8.52837C299.073 9.98713 303.429 12.2452 307.236 15.2926C311.043 18.3301 314.09 22.1368 316.368 26.703C318.656 31.2691 319.805 36.7145 319.805 43.0391C319.805 47.845 319.036 52.5511 317.517 57.1771C315.998 61.8032 313.62 65.8998 310.403 69.4767C307.176 73.0537 302.999 75.9512 297.844 78.1694C292.688 80.3975 286.483 81.5065 279.23 81.5065H260.435V131.744H248.486ZM260.435 70.0962H279.05C284.675 70.0962 289.351 69.187 293.108 67.3685C296.845 65.5501 299.802 63.272 301.97 60.5143C304.138 57.7666 305.657 54.8391 306.536 51.7417C307.416 48.6344 307.855 45.7968 307.855 43.219C307.855 40.0517 307.236 36.9243 306.017 33.8169C304.778 30.7096 302.999 27.9719 300.651 25.5639C298.313 23.166 295.326 21.2376 291.699 19.7688C288.062 18.3001 283.916 17.5707 279.23 17.5707H260.435V70.0962ZM171.661 6.33023H183.78V131.744H171.661V6.33023V6.33023ZM107.135 6.33023V137.539C103.728 133.443 99.5518 128.547 94.576 122.871C89.6003 117.196 84.2148 111.131 78.4097 104.687C72.6246 98.2523 66.6497 91.6679 60.5049 84.9236C54.3501 78.1993 48.4052 71.6149 42.67 65.1704C36.9349 58.7358 31.6893 52.7309 26.9533 47.1656C22.2074 41.6103 18.3107 36.7744 15.2732 32.6779C14.9235 32.2083 14.394 31.5389 13.6946 30.6596C12.9852 29.7804 12.3457 28.9311 11.7562 28.1118L12.2858 33.727V131.744H0.345886V0.535141C3.73302 4.87147 7.89949 9.84725 12.8053 15.4625C17.7312 21.0877 23.0866 27.0527 28.8817 33.3873C34.6768 39.702 40.6218 46.2064 46.7166 52.8808C52.8014 59.5551 58.6864 66.0197 64.3616 72.2843C70.0368 78.549 75.3423 84.464 80.2582 90.0293C85.174 95.5846 89.2106 100.42 92.3779 104.517C92.6177 105.107 93.0773 105.836 93.7767 106.715C94.4861 107.594 95.1256 108.434 95.7151 109.253L95.1855 103.458V6.33023H107.135V6.33023Z" fill="white"/>
<path d="M412.736 27.4223C410.908 33.8469 413.176 44.9275 423.707 63.6117C440.853 94.0159 466.241 116.687 490.61 141.156C470.877 145.742 425.496 88.1709 414.555 68.7673C398.898 40.9908 399.578 25.6039 406.442 17.0411C413.506 8.20863 432.1 1.94393 441.902 18.7597C428.813 9.96713 416.413 14.4833 412.736 27.4223V27.4223Z" fill="white"/>
<path d="M437.386 127.278C430.571 131.734 423.917 134.172 417.712 135.021C411.318 135.89 405.413 135.071 400.247 133.053C393.603 130.465 388.187 125.879 384.56 120.324C382.592 117.326 381.243 113.839 380.514 110.202C379.385 104.657 379.734 98.662 381.463 93.3365C385.44 81.1068 395.061 74.9621 407.811 76.4808C379.824 81.4166 380.664 129.396 416.313 124.58C421.009 123.941 426.185 122.012 431.62 118.455C445.818 109.153 477.112 76.6306 477.631 46.2764C488.432 73.7831 456.659 114.658 437.386 127.278V127.278Z" fill="white"/>
<path fill-rule="evenodd" clip-rule="evenodd" d="M1052.09 189.265C959.083 185.678 894.648 186.148 809.69 189.265C894.268 192.862 959.473 192.163 1052.09 189.265Z" fill="#2A58A4"/>
<path fill-rule="evenodd" clip-rule="evenodd" d="M242.75 189.265C149.749 185.678 85.3039 186.148 0.345886 189.265C84.9242 192.862 150.129 192.163 242.75 189.265Z" fill="#2A58A4"/>
</svg>
